<svg width="64" height="64" viewBox="0 0 64 64" fill="none" xmlns="http://www.w3.org/2000/svg">
<path d="M26.6667 26.6667H16" stroke="black" stroke-width="3" stroke-linecap="round" stroke-linejoin="round"/>
<path d="M37.3335 48.0001V16.0001C37.3335 14.5856 36.7716 13.229 35.7714 12.2288C34.7712 11.2287 33.4147 10.6667 32.0002 10.6667H10.6668C9.25234 10.6667 7.89579 11.2287 6.89559 12.2288C5.8954 13.229 5.3335 14.5856 5.3335 16.0001V45.3334C5.3335 46.0407 5.61445 46.7189 6.11454 47.219C6.61464 47.7191 7.29292 48.0001 8.00016 48.0001H13.3335" stroke="black" stroke-width="3" stroke-linecap="round" stroke-linejoin="round"/>
<path d="M50.6668 47.9999H56.0002C56.7074 47.9999 57.3857 47.719 57.8858 47.2189C58.3859 46.7188 58.6668 46.0405 58.6668 45.3333V36.5866C58.6664 36.0271 58.49 35.482 58.1627 35.0283C57.8354 34.5746 57.3736 34.2354 56.8428 34.0586L51.7148 32.3493C51.3826 32.2383 51.0755 32.0629 50.811 31.8333C50.5465 31.6036 50.3299 31.324 50.1735 31.0106L46.0695 22.8079C45.8482 22.365 45.508 21.9925 45.0869 21.7321C44.6658 21.4716 44.1806 21.3335 43.6855 21.3333H37.3335" stroke="black" stroke-width="3" stroke-linecap="round" stroke-linejoin="round"/>
<path d="M21.3335 21.3333V31.9999" stroke="black" stroke-width="3" stroke-linecap="round" stroke-linejoin="round"/>
<path d="M24 48H40" stroke="black" stroke-width="3" stroke-linecap="round" stroke-linejoin="round"/>
<path d="M45.3333 53.3334C48.2789 53.3334 50.6667 50.9456 50.6667 48.0001C50.6667 45.0546 48.2789 42.6667 45.3333 42.6667C42.3878 42.6667 40 45.0546 40 48.0001C40 50.9456 42.3878 53.3334 45.3333 53.3334Z" stroke="black" stroke-width="3" stroke-linecap="round" stroke-linejoin="round"/>
<path d="M18.6668 53.3334C21.6123 53.3334 24.0002 50.9456 24.0002 48.0001C24.0002 45.0546 21.6123 42.6667 18.6668 42.6667C15.7213 42.6667 13.3335 45.0546 13.3335 48.0001C13.3335 50.9456 15.7213 53.3334 18.6668 53.3334Z" stroke="black" stroke-width="3" stroke-linecap="round" stroke-linejoin="round"/>
</svg>
