<svg width="113" height="107" viewBox="0 0 113 107" fill="none" xmlns="http://www.w3.org/2000/svg">
<path d="M36.7355 49.1884C37.767 48.157 39.166 47.5775 40.6247 47.5775C42.0834 47.5775 43.4824 48.157 44.5139 49.1884C45.5453 50.2199 46.1247 51.6189 46.1247 53.0775C46.1247 54.5362 45.5453 55.9352 44.5139 56.9666C43.4824 57.9981 42.0834 58.5775 40.6247 58.5775C39.166 58.5775 37.767 57.9981 36.7355 56.9666C35.704 55.9352 35.1247 54.5362 35.1247 53.0775C35.1247 51.6189 35.704 50.2199 36.7355 49.1884Z" fill="black"/>
<path d="M71.6757 47.5775C70.217 47.5775 68.8181 48.157 67.7866 49.1884C66.7551 50.2199 66.1757 51.6189 66.1757 53.0775C66.1757 54.5362 66.7551 55.9351 67.7866 56.9666C68.8181 57.9981 70.217 58.5775 71.6757 58.5775C73.1345 58.5775 74.5334 57.9981 75.5649 56.9666C76.5961 55.9351 77.1757 54.5362 77.1757 53.0775C77.1757 51.6189 76.5961 50.2199 75.5649 49.1884C74.5334 48.157 73.1345 47.5775 71.6757 47.5775Z" fill="black"/>
<path d="M49.7765 82.3506C48.5892 81.6458 47.0554 82.037 46.3506 83.2243C45.6458 84.4116 46.037 85.9454 47.2243 86.6502C52.5937 89.8375 57.4397 89.9431 60.9827 89.1689C62.7293 88.7873 64.1329 88.1991 65.1116 87.6986C65.6022 87.4477 65.9905 87.2166 66.2666 87.0404C66.4049 86.9521 66.5155 86.8773 66.5974 86.8202C66.6383 86.7916 66.6721 86.7675 66.6986 86.7482L66.7328 86.7231L66.7458 86.7134L66.7538 86.7075C66.7538 86.7075 66.7561 86.7058 65.2902 84.7628L66.7561 86.7058C67.8583 85.8742 68.0777 84.3066 67.2461 83.2044C66.418 82.1068 64.86 81.8846 63.7586 82.7039L63.7366 82.7195C63.708 82.7394 63.6542 82.7761 63.5764 82.8258C63.4205 82.9253 63.1703 83.0755 62.8351 83.2469C62.1622 83.5911 61.1651 84.0111 59.9154 84.2842C57.4659 84.8194 53.9369 84.8202 49.7765 82.3506Z" fill="black"/>
<path fill-rule="evenodd" clip-rule="evenodd" d="M19.3298 18.8775C24.9467 11.335 32.3095 5.79189 41.5729 2.94344C50.235 -0.640243 59.6662 -0.951522 68.4621 2.00954C78.998 4.37044 87.2011 10.0263 93.2758 18.0985C96.1747 21.9485 98.3918 26.1075 100.025 30.3285C100.578 31.7533 101.065 33.2032 101.483 34.6735C101.741 35.5855 101.919 36.3285 102.033 36.8855L102.051 36.9755C102.067 37.0597 102.08 37.1445 102.088 37.2295C104.218 37.9192 106.184 39.0806 107.829 40.6455L108.109 40.9185C113.999 46.8095 113.999 56.3605 108.109 62.2505C106.527 63.8358 104.623 65.0353 102.547 65.7814V92.6704C102.547 93.3334 102.283 93.9693 101.815 94.4381C101.346 94.907 100.71 95.1704 100.047 95.1704H80.5678C76.1113 99.2287 71.7199 102.095 67.4577 103.919C63.1196 105.776 59.5407 106.323 56.9658 106.126L56.9047 106.12L56.5336 106.144C53.8937 106.276 50.3537 105.755 46.1596 104.124L45.6896 103.938C41.1752 102.114 36.5947 99.2416 32.0327 95.1704H12.4526C11.7895 95.1704 11.1537 94.907 10.6848 94.4381C10.216 93.9693 9.95258 93.3334 9.95258 92.6704V65.7712C8.00897 65.0682 6.21674 63.9674 4.69769 62.5225L4.41766 62.2495C-1.47223 56.3595 -1.47223 46.8085 4.41571 40.9195C6.17352 39.158 8.32709 37.8725 10.6743 37.1553C10.683 37.0844 10.6948 37.0137 10.7097 36.9435C10.9638 35.7495 11.5397 33.7515 12.5297 31.2135C14.1677 27.0105 16.4028 22.8085 19.3298 18.8775ZM16.8469 43.3805L14.3842 41.5216C13.4406 41.5866 12.508 41.7846 11.6152 42.1118C10.2385 42.6162 8.98895 43.4154 7.9538 44.4535C4.01459 48.3905 4.01459 54.7755 7.95477 58.7155C8.98993 59.753 10.2397 60.5516 11.6159 61.0555C12.9924 61.5593 14.4623 61.7563 15.9228 61.6325C16.5256 61.5816 17.1262 61.7508 17.6137 62.109C18.1013 62.4672 18.4423 62.9901 18.5737 63.5805C20.3417 71.5205 23.8356 78.7725 28.8276 84.6765C35.1638 92.1695 41.4936 96.8495 47.5637 99.3015C49.7507 100.186 51.7778 100.724 53.6137 100.984C54.8347 101.157 55.8007 101.186 56.4777 101.139L56.7578 101.114L56.8017 101.111L56.8647 101.109L56.9247 101.109C56.957 101.109 56.9892 101.109 57.0214 101.111C57.1088 101.114 57.196 101.123 57.2827 101.136L57.5307 101.152C58.1057 101.178 58.8986 101.14 59.8906 100.988C61.5656 100.732 63.4396 100.2 65.4897 99.3215C71.2136 96.8725 77.3498 92.1865 83.6996 84.6775C88.6916 78.7735 92.1857 71.5215 93.9526 63.5815C94.0839 62.9916 94.4247 62.4692 94.9116 62.1111C95.3984 61.7529 95.9985 61.5833 96.6008 61.6335C98.0622 61.7576 99.5329 61.5607 100.91 61.0565C102.288 60.5522 103.538 59.7529 104.574 58.7145C108.512 54.7775 108.512 48.3925 104.572 44.4525C103.169 43.0468 101.399 42.1035 99.4948 41.7084L98.2768 43.2985C98.0236 43.6292 97.6918 43.8914 97.3117 44.0613C96.9316 44.2312 96.5151 44.3035 96.0998 44.2715C95.7897 44.2475 95.2968 44.1705 94.6247 44.0145C93.5917 43.7735 92.3808 43.3955 90.9929 42.8545C87.1457 41.3535 82.5998 38.8625 77.3598 35.1575C71.9567 31.3375 68.5427 27.2305 66.7648 23.0875L66.7158 22.9695L66.5297 23.1555C63.1257 26.5195 57.5378 30.3425 49.1537 34.5055L47.9658 35.0885L46.6337 35.7275C38.9128 39.3825 32.3688 41.7075 26.9286 42.9415C23.1008 43.8095 20.2939 44.0435 18.4308 43.9045C18.3327 43.8975 18.2468 43.8895 18.1708 43.8815L17.9767 43.8575C17.5663 43.7948 17.1779 43.6309 16.8469 43.3805Z" fill="black"/>
</svg>
