<svg width="64" height="64" viewBox="0 0 113 107" fill="none" xmlns="http://www.w3.org/2000/svg">
<path d="M40.6247 47.5775C39.166 47.5775 37.767 48.157 36.7355 49.1884C35.704 50.2199 35.1247 51.6189 35.1247 53.0775C35.1247 54.5362 35.704 55.9352 36.7355 56.9666C37.767 57.9981 39.166 58.5775 40.6247 58.5775C42.0834 58.5775 43.4824 57.9981 44.5139 56.9666C45.5453 55.9352 46.1247 54.5362 46.1247 53.0775C46.1247 51.6189 45.5453 50.2199 44.5139 49.1884C43.4824 48.157 42.0834 47.5775 40.6247 47.5775Z" stroke="black" stroke-width="3"/>
<path d="M67.7866 49.1884C68.8181 48.157 70.217 47.5775 71.6757 47.5775C73.1345 47.5775 74.5334 48.157 75.5649 49.1884C76.5961 50.2199 77.1757 51.6189 77.1757 53.0775C77.1757 54.5362 76.5961 55.9351 75.5649 56.9666C74.5334 57.9981 73.1345 58.5775 71.6757 58.5775C70.217 58.5775 68.8181 57.9981 67.7866 56.9666C66.7551 55.9351 66.1757 54.5362 66.1757 53.0775C66.1757 51.6189 66.7551 50.2199 67.7866 49.1884Z" stroke="black" stroke-width="3"/>
<path d="M45.5 81C44.7959 81 44.1245 81.2969 43.6507 81.8177C43.1769 82.3386 42.9447 83.0351 43.0112 83.736C43.2494 86.2476 45.1372 88.1226 47.4303 89.3072C49.9362 90.6018 53.0558 91.1827 56.0388 91.1827C59.0218 91.1827 62.1414 90.6018 64.6473 89.3072C66.9404 88.1226 68.8283 86.2476 69.0664 83.736C69.1329 83.0351 68.9007 82.3386 68.4269 81.8177C67.9531 81.2969 67.2817 81 66.5776 81H45.5Z" stroke="black" stroke-width="3"/>
<path fill-rule="evenodd" clip-rule="evenodd" d="M41.5729 2.94344C32.3095 5.79189 24.9467 11.335 19.3298 18.8775C16.4028 22.8085 14.1677 27.0105 12.5297 31.2135C11.5397 33.7515 10.9638 35.7495 10.7097 36.9435C10.6948 37.0137 10.683 37.0844 10.6743 37.1553C8.32709 37.8725 6.17352 39.158 4.41571 40.9195C-1.47223 46.8085 -1.47223 56.3595 4.41766 62.2495L4.69769 62.5225C6.21674 63.9674 8.00897 65.0682 9.95258 65.7712V92.6704C9.95258 93.3334 10.216 93.9693 10.6848 94.4381C11.1537 94.907 11.7895 95.1704 12.4526 95.1704H32.0327C36.5947 99.2416 41.1752 102.114 45.6896 103.938L46.1596 104.124C50.3537 105.755 53.8937 106.276 56.5336 106.144L56.9047 106.12L56.9658 106.126C59.5407 106.323 63.1196 105.776 67.4577 103.919C71.7199 102.095 76.1113 99.2287 80.5678 95.1704H100.047C100.71 95.1704 101.346 94.907 101.815 94.4381C102.283 93.9693 102.547 93.3334 102.547 92.6704V65.7814C104.623 65.0353 106.527 63.8358 108.109 62.2505C113.999 56.3605 113.999 46.8095 108.109 40.9185L107.829 40.6455C106.184 39.0806 104.218 37.9192 102.088 37.2295C102.08 37.1445 102.067 37.0597 102.051 36.9755L102.033 36.8855C101.919 36.3285 101.741 35.5855 101.483 34.6735C101.065 33.2032 100.578 31.7533 100.025 30.3285C98.3918 26.1075 96.1747 21.9485 93.2758 18.0985C87.2011 10.0263 78.998 4.37044 68.4621 2.00954C59.6662 -0.951522 50.235 -0.640243 41.5729 2.94344ZM14.3842 41.5216L16.8469 43.3805C17.1779 43.6309 17.5663 43.7948 17.9767 43.8575L18.1708 43.8815C18.2468 43.8895 18.3327 43.8975 18.4308 43.9045C20.2939 44.0435 23.1008 43.8095 26.9286 42.9415C32.3688 41.7075 38.9128 39.3825 46.6337 35.7275L47.9658 35.0885L49.1537 34.5055C57.5378 30.3425 63.1257 26.5195 66.5297 23.1555L66.7158 22.9695L66.7648 23.0875C68.5427 27.2305 71.9567 31.3375 77.3598 35.1575C82.5998 38.8625 87.1457 41.3535 90.9929 42.8545C92.3808 43.3955 93.5917 43.7735 94.6247 44.0145C95.2968 44.1705 95.7897 44.2475 96.0998 44.2715C96.5151 44.3035 96.9316 44.2312 97.3117 44.0613C97.6918 43.8914 98.0236 43.6292 98.2768 43.2985L99.4948 41.7084C101.399 42.1035 103.169 43.0468 104.572 44.4525C108.512 48.3925 108.512 54.7775 104.574 58.7145C103.538 59.7529 102.288 60.5522 100.91 61.0565C99.5329 61.5607 98.0622 61.7576 96.6008 61.6335C95.9985 61.5833 95.3984 61.7529 94.9116 62.1111C94.4247 62.4692 94.0839 62.9916 93.9526 63.5815C92.1857 71.5215 88.6916 78.7735 83.6996 84.6775C77.3498 92.1865 71.2136 96.8725 65.4897 99.3215C63.4396 100.2 61.5656 100.732 59.8906 100.988C58.8986 101.14 58.1057 101.178 57.5307 101.152L57.2827 101.136C57.196 101.123 57.1088 101.114 57.0214 101.111C56.9892 101.109 56.957 101.109 56.9247 101.109L56.8647 101.109L56.8017 101.111L56.7578 101.114L56.4777 101.139C55.8007 101.186 54.8347 101.157 53.6137 100.984C51.7778 100.724 49.7507 100.186 47.5637 99.3015C41.4936 96.8495 35.1638 92.1695 28.8276 84.6765C23.8356 78.7725 20.3417 71.5205 18.5737 63.5805C18.4423 62.9901 18.1013 62.4672 17.6137 62.109C17.1262 61.7508 16.5256 61.5816 15.9228 61.6325C14.4623 61.7563 12.9924 61.5593 11.6159 61.0555C10.2397 60.5516 8.98993 59.753 7.95477 58.7155C4.01459 54.7755 4.01459 48.3905 7.9538 44.4535C8.98895 43.4154 10.2385 42.6162 11.6152 42.1118C12.508 41.7846 13.4406 41.5866 14.3842 41.5216Z" stroke="black" stroke-width="3"/>
</svg>
