<svg width="64" height="64" viewBox="0 0 64 64" fill="none" xmlns="http://www.w3.org/2000/svg">
<path d="M29.3333 39.9999H34.6667C36.0812 39.9999 37.4377 39.438 38.4379 38.4378C39.4381 37.4376 40 36.0811 40 34.6666C40 33.2521 39.4381 31.8955 38.4379 30.8954C37.4377 29.8952 36.0812 29.3333 34.6667 29.3333H26.6667C25.0667 29.3333 23.7333 29.8666 22.9333 30.9333L8 45.3333" stroke="black" stroke-width="3" stroke-linecap="round" stroke-linejoin="round"/>
<path d="M18.6665 56L22.9332 52.2667C23.7332 51.2 25.0665 50.6667 26.6665 50.6667H37.3332C40.2665 50.6667 42.9332 49.6 44.7998 47.4667L57.0665 35.7333C58.0955 34.7609 58.6961 33.4195 58.7361 32.0042C58.7761 30.5889 58.2523 29.2157 57.2798 28.1867C56.3074 27.1576 54.966 26.557 53.5507 26.517C52.1354 26.477 50.7622 27.0009 49.7332 27.9733L38.5332 38.3733" stroke="black" stroke-width="3" stroke-linecap="round" stroke-linejoin="round"/>
<path d="M5.3335 42.6667L21.3335 58.6667" stroke="black" stroke-width="3" stroke-linecap="round" stroke-linejoin="round"/>
<path d="M42.6664 31.7333C46.9374 31.7333 50.3998 28.2709 50.3998 23.9999C50.3998 19.7289 46.9374 16.2666 42.6664 16.2666C38.3954 16.2666 34.9331 19.7289 34.9331 23.9999C34.9331 28.2709 38.3954 31.7333 42.6664 31.7333Z" stroke="black" stroke-width="3" stroke-linecap="round" stroke-linejoin="round"/>
<path d="M16 21.3333C20.4183 21.3333 24 17.7515 24 13.3333C24 8.91497 20.4183 5.33325 16 5.33325C11.5817 5.33325 8 8.91497 8 13.3333C8 17.7515 11.5817 21.3333 16 21.3333Z" stroke="black" stroke-width="3" stroke-linecap="round" stroke-linejoin="round"/>
</svg>
