<svg width="64" height="64" viewBox="0 0 64 64" fill="none" xmlns="http://www.w3.org/2000/svg">
<g clip-path="url(#clip0_118_1268)">
<path d="M26.9468 7.99992C26.9468 9.76803 27.6492 11.4637 28.8994 12.714C30.1496 13.9642 31.8453 14.6666 33.6134 14.6666C35.3816 14.6666 37.0772 13.9642 38.3275 12.714C39.5777 11.4637 40.2801 9.76803 40.2801 7.99992C40.2801 6.23181 39.5777 4.53612 38.3275 3.28587C37.0772 2.03563 35.3816 1.33325 33.6134 1.33325C31.8453 1.33325 30.1496 2.03563 28.8994 3.28587C27.6492 4.53612 26.9468 6.23181 26.9468 7.99992Z" stroke="black" stroke-width="3" stroke-linecap="round" stroke-linejoin="round"/>
<path d="M46.1786 29.3734C37.8346 28.1814 36.0586 24.8694 33.8079 20.6747L33.1093 19.3894C32.7193 18.6883 32.1276 18.1207 31.4109 17.7602C30.6942 17.3998 29.8856 17.2632 29.0903 17.3681C28.295 17.4731 27.5496 17.8148 26.9509 18.3488C26.3523 18.8828 25.928 19.5845 25.7333 20.3627L16.3999 57.6961C16.1425 58.7247 16.3041 59.8135 16.8491 60.7231C17.3942 61.6327 18.2781 62.2886 19.3066 62.5467C19.626 62.6254 19.9536 62.6656 20.2826 62.6667C21.1744 62.6659 22.0403 62.3671 22.7428 61.8177C23.4453 61.2684 23.9441 60.5 24.1599 59.6347L27.4853 46.3307C29.9199 49.9387 30.6186 52.2721 32.3919 59.6054C32.602 60.4757 33.098 61.2503 33.8005 61.8054C34.5029 62.3604 35.3713 62.6637 36.2666 62.6667C36.5837 62.666 36.8996 62.6284 37.2079 62.5547C37.7188 62.4314 38.2003 62.2087 38.625 61.8992C39.0498 61.5898 39.4093 61.1997 39.6832 60.7512C39.9571 60.3027 40.14 59.8046 40.2213 59.2855C40.3026 58.7663 40.2809 58.2362 40.1573 57.7254C37.3973 46.3201 36.4533 44.7574 29.9919 36.2587L31.2853 31.0961C35.0324 34.6633 39.8826 36.8481 45.0373 37.2907C45.5634 37.3789 46.1018 37.3609 46.6208 37.2379C47.1399 37.1149 47.6291 36.8893 48.0596 36.5744C48.4902 36.2595 48.8534 35.8617 49.128 35.4043C49.4025 34.947 49.5828 34.4393 49.6582 33.9112C49.7336 33.3832 49.7026 32.8454 49.5671 32.3294C49.4316 31.8135 49.1942 31.3299 48.869 30.9071C48.5438 30.4843 48.1373 30.1307 47.6734 29.8674C47.2095 29.604 46.6977 29.436 46.1679 29.3734H46.1786Z" stroke="black" stroke-width="3" stroke-linecap="round" stroke-linejoin="round"/>
<path d="M56.2801 25.3333L46.9468 62.6666" stroke="black" stroke-width="3" stroke-linecap="round" stroke-linejoin="round"/>
<path d="M10.1333 35.1573C9.73069 35.0671 9.35017 34.8974 9.01416 34.658C8.67814 34.4185 8.39342 34.1143 8.17674 33.7632C7.96006 33.4121 7.81581 33.0212 7.75248 32.6135C7.68915 32.2058 7.70802 31.7896 7.80797 31.3893L11.0746 18.3413C11.2708 17.559 11.7647 16.8842 12.4511 16.4608C13.1375 16.0374 13.9622 15.8988 14.7493 16.0746L17.8666 16.7706C18.2682 16.8614 18.6476 17.0314 18.9826 17.2708C19.3176 17.5101 19.6015 17.8139 19.8175 18.1643C20.0336 18.5147 20.1776 18.9048 20.2409 19.3116C20.3043 19.7184 20.2859 20.1337 20.1866 20.5333L16.9253 33.6C16.7292 34.3822 16.2352 35.057 15.5488 35.4804C14.8624 35.9038 14.0378 36.0424 13.2506 35.8666L10.1333 35.1573Z" stroke="black" stroke-width="3" stroke-linecap="round" stroke-linejoin="round"/>
<path d="M10.2612 21.6001L19.4052 23.6454" stroke="black" stroke-width="3" stroke-linecap="round" stroke-linejoin="round"/>
</g>
<defs>
<clipPath id="clip0_118_1268">
<rect width="64" height="64" fill="white"/>
</clipPath>
</defs>
</svg>
