<svg width="64" height="64" viewBox="0 0 64 64" fill="none" xmlns="http://www.w3.org/2000/svg">
<path d="M26.6665 20.6667C26.6672 20.3114 26.7624 19.9628 26.9425 19.6566C27.1226 19.3504 27.3809 19.0977 27.6911 18.9244C28.0012 18.7512 28.3518 18.6636 28.707 18.6708C29.0622 18.678 29.409 18.7797 29.7118 18.9653L39.4825 24.9627C39.7737 25.1416 40.0142 25.3922 40.181 25.6905C40.3478 25.9888 40.4354 26.3249 40.4354 26.6667C40.4354 27.0085 40.3478 27.3445 40.181 27.6428C40.0142 27.9412 39.7737 28.1917 39.4825 28.3707L29.7118 34.3707C29.4086 34.5566 29.0613 34.6582 28.7057 34.6652C28.3501 34.6722 27.999 34.5842 27.6887 34.4103C27.3785 34.2364 27.1202 33.9829 26.9405 33.676C26.7608 33.369 26.6662 33.0197 26.6665 32.664V20.6667Z" stroke="black" stroke-width="2" stroke-linecap="round" stroke-linejoin="round"/>
<path d="M32 45.3335V56.0002" stroke="black" stroke-width="2" stroke-linecap="round" stroke-linejoin="round"/>
<path d="M21.3335 56H42.6668" stroke="black" stroke-width="2" stroke-linecap="round" stroke-linejoin="round"/>
<path d="M53.3335 8H10.6668C7.72131 8 5.3335 10.3878 5.3335 13.3333V40C5.3335 42.9455 7.72131 45.3333 10.6668 45.3333H53.3335C56.279 45.3333 58.6668 42.9455 58.6668 40V13.3333C58.6668 10.3878 56.279 8 53.3335 8Z" stroke="black" stroke-width="2" stroke-linecap="round" stroke-linejoin="round"/>
</svg>
