<svg width="64" height="64" viewBox="0 0 64 64" fill="none" xmlns="http://www.w3.org/2000/svg">
<path d="M42.6665 29.3333H42.6932" stroke="black" stroke-width="3" stroke-linecap="round" stroke-linejoin="round"/>
<path d="M50.6663 13.3333C46.6663 13.3333 43.1997 17.0666 42.6663 18.6666C33.333 14.6666 13.333 17.8666 13.333 31.9999C13.333 36.7999 13.333 39.9999 18.6663 43.9999V53.3333H29.333V47.9999H37.333V53.3333H47.9997V42.6666C50.6663 41.3333 52.533 39.9999 53.333 37.3333H58.6663V26.6666H53.333C53.333 23.9999 51.9997 22.6666 50.6663 21.3333V13.3333Z" stroke="black" stroke-width="3" stroke-linecap="round" stroke-linejoin="round"/>
<path d="M5.33301 24V26.6667C5.33301 29.6 7.73301 32 10.6663 32H13.333" stroke="black" stroke-width="3" stroke-linecap="round" stroke-linejoin="round"/>
<path d="M34.1976 16.4127C33.2566 12.0958 28.9942 9.35917 24.6773 10.3002C20.3604 11.2413 17.6237 15.5037 18.5648 19.8206" stroke="black" stroke-width="3" stroke-linecap="round" stroke-linejoin="round"/>
</svg>
