<svg width="64" height="64" viewBox="0 0 64 64" fill="none" xmlns="http://www.w3.org/2000/svg">
<path d="M33.3332 45.3332L31.9998 42.6665L30.6665 45.3332H33.3332Z" stroke="black" stroke-width="3" stroke-linecap="round" stroke-linejoin="round"/>
<path d="M39.9998 58.6666C40.7071 58.6666 41.3854 58.3856 41.8855 57.8855C42.3856 57.3854 42.6665 56.7072 42.6665 55.9999V53.3333C43.671 53.3326 44.6549 53.0483 45.505 52.5131C46.355 51.9778 47.0366 51.2134 47.4713 50.3078C47.906 49.4022 48.0761 48.3923 47.962 47.3943C47.8479 46.3963 47.4543 45.4507 46.8265 44.6666C49.8824 41.7127 51.9864 37.9134 52.8686 33.7557C53.7508 29.5981 53.371 25.2717 51.7779 21.3314C50.1848 17.3911 47.451 14.0164 43.9272 11.6402C40.4033 9.26391 36.25 7.99438 31.9998 7.99438C27.7497 7.99438 23.5963 9.26391 20.0725 11.6402C16.5487 14.0164 13.8149 17.3911 12.2218 21.3314C10.6287 25.2717 10.2489 29.5981 11.1311 33.7557C12.0133 37.9134 14.1173 41.7127 17.1732 44.6666C16.5454 45.4507 16.1518 46.3963 16.0377 47.3943C15.9236 48.3923 16.0937 49.4022 16.5284 50.3078C16.9631 51.2134 17.6447 51.9778 18.4947 52.5131C19.3447 53.0483 20.3287 53.3326 21.3332 53.3333V55.9999C21.3332 56.7072 21.6141 57.3854 22.1142 57.8855C22.6143 58.3856 23.2926 58.6666 23.9998 58.6666H39.9998Z" stroke="black" stroke-width="3" stroke-linecap="round" stroke-linejoin="round"/>
<path d="M40.0002 34.6668C41.4729 34.6668 42.6668 33.4729 42.6668 32.0002C42.6668 30.5274 41.4729 29.3335 40.0002 29.3335C38.5274 29.3335 37.3335 30.5274 37.3335 32.0002C37.3335 33.4729 38.5274 34.6668 40.0002 34.6668Z" stroke="black" stroke-width="3" stroke-linecap="round" stroke-linejoin="round"/>
<path d="M24.0002 34.6668C25.4729 34.6668 26.6668 33.4729 26.6668 32.0002C26.6668 30.5274 25.4729 29.3335 24.0002 29.3335C22.5274 29.3335 21.3335 30.5274 21.3335 32.0002C21.3335 33.4729 22.5274 34.6668 24.0002 34.6668Z" stroke="black" stroke-width="3" stroke-linecap="round" stroke-linejoin="round"/>
</svg>
