<svg width="64" height="64" viewBox="0 0 64 64" fill="none" xmlns="http://www.w3.org/2000/svg">
<path d="M50.6667 18.6667V10.6667C50.6667 9.95942 50.3857 9.28115 49.8856 8.78105C49.3855 8.28095 48.7072 8 48 8H13.3333C11.9188 8 10.5623 8.5619 9.5621 9.5621C8.5619 10.5623 8 11.9188 8 13.3333C8 14.7478 8.5619 16.1044 9.5621 17.1046C10.5623 18.1048 11.9188 18.6667 13.3333 18.6667H53.3333C54.0406 18.6667 54.7189 18.9476 55.219 19.4477C55.7191 19.9478 56 20.6261 56 21.3333V32M56 32H48C46.5855 32 45.229 32.5619 44.2288 33.5621C43.2286 34.5623 42.6667 35.9188 42.6667 37.3333C42.6667 38.7478 43.2286 40.1044 44.2288 41.1046C45.229 42.1048 46.5855 42.6667 48 42.6667H56C56.7072 42.6667 57.3855 42.3857 57.8856 41.8856C58.3857 41.3855 58.6667 40.7072 58.6667 40V34.6667C58.6667 33.9594 58.3857 33.2811 57.8856 32.781C57.3855 32.281 56.7072 32 56 32Z" stroke="black" stroke-width="3" stroke-linecap="round" stroke-linejoin="round"/>
<path d="M8 13.3335V50.6668C8 52.0813 8.5619 53.4379 9.5621 54.4381C10.5623 55.4383 11.9188 56.0002 13.3333 56.0002H53.3333C54.0406 56.0002 54.7189 55.7192 55.219 55.2191C55.7191 54.719 56 54.0407 56 53.3335V42.6668" stroke="black" stroke-width="3" stroke-linecap="round" stroke-linejoin="round"/>
</svg>
