<svg width="64" height="64" viewBox="0 0 64 64" fill="none" xmlns="http://www.w3.org/2000/svg">
<path d="M32 53.3333H32.0267" stroke="black" stroke-width="3" stroke-linecap="round" stroke-linejoin="round"/>
<path d="M22.6665 43.8107C25.1589 41.3677 28.5098 39.9993 31.9998 39.9993C35.4899 39.9993 38.8408 41.3677 41.3332 43.8107" stroke="black" stroke-width="3" stroke-linecap="round" stroke-linejoin="round"/>
<path d="M13.3335 34.2908C17.1149 30.5839 21.9143 28.0867 27.1202 27.1174" stroke="black" stroke-width="3" stroke-linecap="round" stroke-linejoin="round"/>
<path d="M50.6665 34.2906C49.0608 32.7166 47.2625 31.352 45.3145 30.2292" stroke="black" stroke-width="3" stroke-linecap="round" stroke-linejoin="round"/>
<path d="M5.3335 23.5199C8.63109 20.5708 12.3951 18.1891 16.4722 16.4719" stroke="black" stroke-width="3" stroke-linecap="round" stroke-linejoin="round"/>
<path d="M58.6668 23.5201C54.5994 19.8823 49.8306 17.1151 44.6539 15.389C39.4773 13.6628 34.0022 13.0141 28.5654 13.4828" stroke="black" stroke-width="3" stroke-linecap="round" stroke-linejoin="round"/>
<path d="M5.3335 5.33325L58.6668 58.6666" stroke="black" stroke-width="3" stroke-linecap="round" stroke-linejoin="round"/>
</svg>
