<svg xmlns="http://www.w3.org/2000/svg" fill="none" viewBox="0 0 126 48">
    <path fill="#FF3434"
          d="M97.968 47.5c-3.8 0-6.9-1.5-9.3-4.5-2.333-3-3.5-6.933-3.5-11.8 0-5.333 1.233-10.367 3.7-15.1 2.467-4.8 5.733-8.633 9.8-11.5 4.133-2.933 8.5-4.4 13.1-4.4 1.467 0 2.433.3 2.9.9.533.533.967 1.533 1.3 3 1.267-.267 2.667-.4 4.2-.4 1.6 0 2.833.4 3.7 1.2.867.8 1.3 1.933 1.3 3.4 0 1.533-.333 4.2-1 8a165.4 165.4 0 0 0-1.7 11.7c-.4 3.667-.6 7.8-.6 12.4 0 2.533-.533 4.367-1.6 5.5-1 1.067-2.667 1.6-5 1.6-2.267 0-3.967-.533-5.1-1.6-1.067-1.133-1.6-2.933-1.6-5.4l.1-1.6c-2.067 5.733-5.633 8.6-10.7 8.6Zm3.9-10.1c1.867 0 3.567-1.3 5.1-3.9 1.533-2.6 2.9-7.233 4.1-13.9l1.9-10.1c-2.733.067-5.267 1.133-7.6 3.2-2.333 2-4.2 4.667-5.6 8-1.4 3.333-2.1 6.867-2.1 10.6 0 2 .367 3.533 1.1 4.6.8 1 1.833 1.5 3.1 1.5Z"/>
    <path fill="#FF3434"
          d="M91.046 16.6c.2-.067.533-.1 1-.1 1 0 1.767.333 2.3 1 .533.667.8 1.567.8 2.7 0 2.067-.4 3.7-1.2 4.9-.8 1.133-2 1.967-3.6 2.5-3.067 1-6.333 1.5-9.8 1.5-2.933 0-5.7-.4-8.3-1.2a201.124 201.124 0 0 1-6.4 9.7c-2.667 3.8-4.967 6.4-6.9 7.8-1.933 1.4-4.133 2.1-6.6 2.1-2.733 0-4.9-1.067-6.5-3.2-1.533-2.133-2.5-5.5-2.9-10.1-.8-9.333-1.2-17.5-1.2-24.5V6.2c.067-2.2.667-3.733 1.8-4.6C44.68.733 46.38.3 48.646.3c1.733 0 3 .4 3.8 1.2.867.733 1.3 2 1.3 3.8 0 7.667.467 17.633 1.4 29.9 4-5.933 7-10.667 9-14.2-1-1.933-1.5-4.233-1.5-6.9 0-2.267.5-4.467 1.5-6.6s2.367-3.867 4.1-5.2c1.733-1.333 3.7-2 5.9-2 1.933 0 3.5.7 4.7 2.1 1.2 1.333 1.8 3.3 1.8 5.9 0 3-.8 6.433-2.4 10.3 2.533-.133 5.9-.633 10.1-1.5l2.7-.5Z"/>
    <path fill="#FF3434"
          d="M46.4 24.7c.867 0 1.533.4 2 1.2.533.8.8 1.9.8 3.3 0 2.667-.633 4.733-1.9 6.2-2.467 3-5.967 5.767-10.5 8.3-4.467 2.533-9.267 3.8-14.4 3.8-7 0-12.433-1.9-16.3-5.7C2.233 38 .3 32.8.3 26.2c0-4.6.967-8.867 2.9-12.8 1.933-4 4.6-7.167 8-9.5C14.667 1.567 18.567.4 22.9.4c3.867 0 6.967 1.167 9.3 3.5 2.333 2.267 3.5 5.367 3.5 9.3 0 4.6-1.667 8.567-5 11.9-3.267 3.267-8.833 5.867-16.7 7.8 1.667 3.067 4.833 4.6 9.5 4.6 3 0 6.4-1.033 10.2-3.1 3.867-2.133 7.2-4.9 10-8.3.8-.933 1.7-1.4 2.7-1.4ZM21.2 10.2c-2.467 0-4.567 1.433-6.3 4.3-1.667 2.867-2.5 6.333-2.5 10.4v.2c3.933-.933 7.033-2.333 9.3-4.2 2.267-1.867 3.4-4.033 3.4-6.5 0-1.267-.367-2.267-1.1-3-.667-.8-1.6-1.2-2.8-1.2Z"/>
</svg>
