<svg viewBox="0 0 161 32" fill="none" xmlns="http://www.w3.org/2000/svg">
<path fill-rule="evenodd" clip-rule="evenodd" d="M76.6275 14.7573C76.9073 9.85661 74.0981 5.46814 68.8117 5.46814C63.6581 5.46814 60.8188 9.49934 60.8188 14.3716C60.8188 19.1031 63.9806 22.8545 68.8812 22.8545C72.2469 22.8545 74.9106 21.1708 76.4868 18.2273L74.1044 16.8598C73.0168 18.8233 71.4754 20.2603 69.0915 20.2603C65.9013 20.2603 63.7276 17.8068 63.6929 14.7573H76.6275ZM63.8336 12.3733C64.1829 9.9894 66.4277 8.06233 68.8465 8.06233C71.3 8.06233 73.2982 9.9894 73.6839 12.3733H63.8336Z" fill="black"/>
<path d="M21.1456 5.98193H16.4662V22.3944H21.1456V5.98193Z" fill="black"/>
<path d="M31.0371 5.98672H26.3577V22.3976H31.0371V14.2752C31.0371 12.3038 31.0703 9.19587 33.8447 9.19587C36.4847 9.19587 36.3851 11.7347 36.3851 13.7077V22.4024H41.0645V12.3702C41.0645 8.56037 38.8718 5.39548 35.3813 5.45555C33.5333 5.48559 32.0725 6.01992 31.1035 7.49012H31.0371V5.98672Z" fill="black"/>
<path d="M46.6196 5.92358H43.431L51.5281 23.4854L59.589 5.92358H56.4351L51.5281 17.0007L46.6196 5.92358Z" fill="black"/>
<path d="M83.2846 5.92343H80.4801V22.3976H83.2846V14.5818C83.2846 11.6382 83.5296 8.06233 87.3853 8.06233C90.645 8.06233 90.8632 10.4447 90.8632 13.11V22.3976H93.6661V12.6184C93.6661 8.76265 92.6148 5.46814 88.0588 5.46814C86.0258 5.46814 84.5176 6.34394 83.3604 7.92164H83.2909V5.92343H83.2846Z" fill="black"/>
<path d="M101.934 8.51768H104.879V5.92349H101.934V0H99.1295V5.92349H97.4127V8.51768H99.1295V22.3992H101.934V8.51768Z" fill="black"/>
<path fill-rule="evenodd" clip-rule="evenodd" d="M113.711 7.32565C117.638 7.32565 120.193 10.2708 120.193 14.0206C120.193 17.9111 117.95 21.2767 113.814 21.2767C109.887 21.2767 107.434 17.9111 107.434 14.1961C107.434 10.6913 109.993 7.32565 113.708 7.32565H113.711ZM121.669 6.20481H120.089V9.01084H120.017C118.655 6.97469 116.271 5.84912 113.783 5.84912C108.909 5.84912 105.859 9.45981 105.859 14.1913C105.859 18.9228 108.945 22.7438 113.852 22.7438C116.236 22.7438 118.829 21.5518 120.017 19.4841H120.089V22.3928H121.669V6.20481Z" fill="black"/>
<path fill-rule="evenodd" clip-rule="evenodd" d="M133.583 7.32565C137.508 7.32565 140.064 10.2708 140.064 14.0206C140.064 17.9111 137.819 21.2767 133.684 21.2767C129.759 21.2767 127.304 17.9111 127.304 14.1961C127.304 10.6913 129.863 7.32565 133.58 7.32565H133.583ZM141.539 6.20481H139.958V9.01084H139.889C138.387 6.97469 136.428 5.84912 133.795 5.84912C129.063 5.84912 125.732 9.59892 125.732 14.2609C125.732 18.7837 128.886 22.7438 133.584 22.7438C134.807 22.7323 136.012 22.4415 137.105 21.8936C138.199 21.3456 139.152 20.555 139.894 19.5821H139.963V21.5803C139.963 23.7524 139.788 25.8486 138.526 27.714C137.334 29.4308 135.364 30.1327 133.338 30.1327C130.078 30.1327 127.239 28.0286 127.063 24.6645H125.482C125.727 29.1162 129.232 31.6045 133.474 31.6045C136.032 31.6045 138.415 30.5532 139.924 28.4855C141.465 26.3466 141.536 24.1033 141.536 21.6151V6.20481H141.539Z" fill="black"/>
<path fill-rule="evenodd" clip-rule="evenodd" d="M161 14.4412C161.036 9.77928 158.126 5.854 153.219 5.854C148.487 5.854 145.367 9.7445 145.367 14.2658C145.367 18.8582 148.416 22.7487 153.219 22.7487C156.409 22.7487 159.003 21.1678 160.475 18.3681L159.142 17.5966C157.987 19.7703 155.952 21.2769 153.429 21.2769C149.679 21.2769 146.838 18.542 146.947 14.4412H161ZM146.944 12.9631C147.224 9.91366 149.959 7.31946 153.253 7.31946C156.584 7.31946 159.038 9.98321 159.419 12.9631H146.944Z" fill="black"/>
<path d="M3.69222e-07 9.33652C3.69222e-07 8.66648 0.198691 8.01148 0.570945 7.45437C0.9432 6.89725 1.4723 6.46303 2.09134 6.20661C2.71037 5.9502 3.39154 5.88311 4.04871 6.01383C4.70588 6.14455 5.30952 6.4672 5.78331 6.94099C6.2571 7.41478 6.57976 8.01843 6.71048 8.67559C6.8412 9.33276 6.77411 10.0139 6.51769 10.633C6.26128 11.252 5.82706 11.7811 5.26994 12.1534C4.71282 12.5256 4.05783 12.7243 3.38779 12.7243C2.94284 12.7245 2.50221 12.637 2.09109 12.4668C1.67997 12.2967 1.30642 12.0471 0.991797 11.7325C0.67717 11.4179 0.427636 11.0443 0.257457 10.6332C0.0872785 10.2221 -0.000207405 9.78147 3.69222e-07 9.33652Z" fill="black"/>
<path d="M3.69222e-07 19.7259C3.69222e-07 19.0559 0.198691 18.4009 0.570945 17.8438C0.9432 17.2867 1.4723 16.8524 2.09134 16.596C2.71037 16.3396 3.39154 16.2725 4.04871 16.4032C4.70588 16.534 5.30952 16.8566 5.78331 17.3304C6.2571 17.8042 6.57976 18.4078 6.71048 19.065C6.8412 19.7222 6.77411 20.4033 6.51769 21.0224C6.26128 21.6414 5.82706 22.1705 5.26994 22.5428C4.71282 22.915 4.05783 23.1137 3.38779 23.1137C2.94284 23.1139 2.50221 23.0264 2.09109 22.8563C1.67997 22.6861 1.30642 22.4365 0.991797 22.1219C0.67717 21.8073 0.427636 21.4337 0.257457 21.0226C0.0872785 20.6115 -0.000207405 20.1709 3.69222e-07 19.7259Z" fill="black"/>
</svg>
